<?xml version="1.0" encoding="utf-8"?>
<!-- Generator: Adobe Illustrator 25.0.1, SVG Export Plug-In . SVG Version: 6.00 Build 0)  -->
<svg version="1.1" id="Capa_1" xmlns="http://www.w3.org/2000/svg" xmlns:xlink="http://www.w3.org/1999/xlink" x="0px" y="0px"
	 viewBox="0 0 409.8 409.8" style="enable-background:new 0 0 409.8 409.8;" xml:space="preserve">
<style type="text/css">
	.st0{fill:#3258A6;}
</style>
<g>
	<g>
		<path class="st0" d="M228.9,205L404.6,29.3c6.8-6.5,7-17.4,0.4-24.1c-6.5-6.8-17.4-7-24.1-0.4c-0.1,0.1-0.3,0.3-0.4,0.4
			L204.8,180.9L29.1,5.2C22.3-1.3,11.5-1.2,5,5.6c-6.4,6.6-6.4,17.1,0,23.7L180.7,205L5,380.7c-6.7,6.7-6.7,17.5,0,24.1
			c6.7,6.7,17.5,6.7,24.1,0l175.7-175.7l175.7,175.7c6.8,6.5,17.6,6.4,24.1-0.4c6.4-6.6,6.4-17.1,0-23.7L228.9,205z"/>
	</g>
</g>
</svg>
