<svg xmlns="http://www.w3.org/2000/svg" xmlns:xlink="http://www.w3.org/1999/xlink" version="1.1" style="" xml:space="preserve" width="477.867" height="477.867"><rect id="backgroundrect" width="100%" height="100%" x="0" y="0" fill="none" stroke="none"/>

















<g class="currentLayer" style=""><title>Layer 1</title><g id="svg_1" class="" fill="#3258a6" fill-opacity="1">
	<g id="svg_2" fill="#3258a6" fill-opacity="1">
		<path d="M426.667,68.267H51.2c-28.277,0-51.2,22.923-51.2,51.2V358.4c0,28.277,22.923,51.2,51.2,51.2h375.467    c28.277,0,51.2-22.923,51.2-51.2V119.467C477.867,91.19,454.944,68.267,426.667,68.267z M443.733,266.001L336.333,158.601    c-6.664-6.663-17.468-6.663-24.132,0L170.667,300.134l-56.201-56.201c-6.664-6.663-17.468-6.663-24.132,0l-56.201,56.201V119.467    c0-9.426,7.641-17.067,17.067-17.067h375.467c9.426,0,17.067,7.641,17.067,17.067V266.001z" id="svg_3" fill="#3258a6" fill-opacity="1"/>
	</g>
</g><g id="svg_4" class="selected" fill-opacity="1" fill="#3258a6">
	<g id="svg_5" fill="#3258a6">
		<circle cx="153.60000610351562" cy="187.73300170898438" r="51.20000076293945" id="svg_6" fill="#3258a6"/>
	</g>
</g><g id="svg_7">
</g><g id="svg_8">
</g><g id="svg_9">
</g><g id="svg_10">
</g><g id="svg_11">
</g><g id="svg_12">
</g><g id="svg_13">
</g><g id="svg_14">
</g><g id="svg_15">
</g><g id="svg_16">
</g><g id="svg_17">
</g><g id="svg_18">
</g><g id="svg_19">
</g><g id="svg_20">
</g><g id="svg_21">
</g></g></svg>